<svg xmlns="http://www.w3.org/2000/svg" xmlns:xlink="http://www.w3.org/1999/xlink" width="500" zoomAndPan="magnify" viewBox="0 0 375 374.999991" height="500" preserveAspectRatio="xMidYMid meet" version="1.0"><defs><g/></defs><path fill="#39b54a" d="M 186.925781 189.761719 C 183.003906 180.714844 177.171875 163.109375 182.898438 144.308594 C 192.296875 113.464844 229.171875 91.347656 273.542969 94.210938 C 279.4375 131.84375 264.914062 167.097656 237.554688 182.824219 C 219.125 193.417969 200.03125 192.1875 190.988281 190.921875 C 200.246094 183.898438 210.640625 174.871094 221.027344 163.445312 C 237.0625 145.8125 247.765625 128.3125 254.851562 114.351562 C 244.671875 128.558594 232.445312 143.910156 217.832031 159.59375 C 207.289062 170.910156 196.875 180.933594 186.925781 189.761719 Z M 186.925781 189.761719 " fill-opacity="1" fill-rule="nonzero"/><path fill="#39b54a" d="M 175.097656 190.742188 C 168.171875 192.839844 154.84375 195.597656 141.632812 189.8125 C 119.957031 180.320312 106.980469 151.511719 112.851562 119.355469 C 140.773438 118.257812 165.226562 131.867188 174.355469 153.183594 C 180.507812 167.546875 177.980469 181.382812 176.289062 187.878906 C 171.960938 180.519531 166.269531 172.160156 158.828125 163.601562 C 147.34375 150.390625 135.503906 141.082031 125.933594 134.71875 C 135.421875 143.363281 145.5625 153.597656 155.75 165.605469 C 163.097656 174.269531 169.511719 182.726562 175.097656 190.742188 Z M 175.097656 190.742188 " fill-opacity="1" fill-rule="nonzero"/><g fill="#3d3d3d" fill-opacity="1"><g transform="translate(113.458399, 246.286272)"><g><path d="M 4.5625 0 L 35.484375 0 C 49.03125 0 56.671875 -5.984375 56.671875 -16.453125 C 56.671875 -23.9375 52.59375 -28.828125 45.375 -30.25 L 45.375 -30.328125 C 51.765625 -31.984375 55.34375 -36.484375 55.34375 -43.046875 C 55.34375 -53.34375 47.9375 -59.15625 34.734375 -59.15625 L 4.5625 -59.15625 Z M 18.78125 -34.65625 L 18.78125 -48.6875 L 32.484375 -48.6875 C 38.0625 -48.6875 41.21875 -46.109375 41.21875 -41.796875 C 41.21875 -37.21875 38.0625 -34.65625 32.484375 -34.65625 Z M 18.78125 -10.546875 L 18.78125 -25.59375 L 32.90625 -25.59375 C 39.046875 -25.59375 42.546875 -22.84375 42.546875 -17.859375 C 42.546875 -13.21875 39.046875 -10.546875 32.90625 -10.546875 Z M 18.78125 -10.546875 "/></g></g></g><g fill="#3d3d3d" fill-opacity="1"><g transform="translate(170.371881, 246.286272)"><g><path d="M 4.5625 0 L 18.78125 0 L 18.78125 -59.15625 L 4.5625 -59.15625 Z M 4.5625 0 "/></g></g></g><g fill="#3d3d3d" fill-opacity="1"><g transform="translate(191.890728, 246.286272)"><g><path d="M 31.65625 1.90625 C 42.046875 1.90625 50.609375 -2.984375 54.421875 -11.21875 L 54.515625 -11.21875 L 55.921875 0 L 66.3125 0 L 66.3125 -33.5625 L 27 -33.5625 L 27 -24.765625 L 52.4375 -24.765625 C 52.09375 -16.03125 44.875 -9.71875 35.484375 -9.71875 C 24.421875 -9.71875 16.703125 -17.859375 16.703125 -29.578125 C 16.703125 -41.125 23.59375 -49.109375 33.484375 -49.109375 C 39.890625 -49.109375 45.453125 -45.03125 47.359375 -39.140625 L 60.40625 -41.875 C 57.421875 -53.34375 46.703125 -61.234375 33.65625 -61.234375 C 15.203125 -61.234375 2.5 -48.359375 2.5 -29.578125 C 2.5 -10.96875 14.453125 1.90625 31.65625 1.90625 Z M 31.65625 1.90625 "/></g></g></g><g fill="#3d3d3d" fill-opacity="1"><g transform="translate(251.623684, 264.093146)"><g><path d="M 0.796875 0 L 5 0 C 8.546875 0 10.53125 -1.828125 10.53125 -5.125 C 10.53125 -8.40625 8.546875 -10.234375 5 -10.234375 L 0.796875 -10.234375 Z M 3.171875 -1.96875 L 3.171875 -8.28125 L 5 -8.28125 C 6.96875 -8.28125 8.078125 -7.15625 8.078125 -5.125 C 8.078125 -3.09375 6.96875 -1.96875 5 -1.96875 Z M 3.171875 -1.96875 "/></g></g></g><g fill="#3d3d3d" fill-opacity="1"><g transform="translate(266.470263, 264.093146)"><g><path d="M 0.078125 0 L 2.640625 0 L 3.3125 -2.015625 L 7.25 -2.015625 L 7.90625 0 L 10.484375 0 L 6.78125 -10.234375 L 3.78125 -10.234375 Z M 3.75 -3.75 L 5.265625 -8.296875 L 5.296875 -8.296875 L 6.796875 -3.75 Z M 3.75 -3.75 "/></g></g></g><g fill="#3d3d3d" fill-opacity="1"><g transform="translate(280.900105, 264.093146)"><g><path d="M 6.09375 0.359375 C 9.53125 0.359375 11.765625 -1.8125 11.765625 -5.125 C 11.765625 -8.421875 9.53125 -10.59375 6.09375 -10.59375 C 2.671875 -10.59375 0.4375 -8.421875 0.4375 -5.125 C 0.4375 -1.8125 2.671875 0.359375 6.09375 0.359375 Z M 6.09375 -1.75 C 4.15625 -1.75 2.890625 -3.09375 2.890625 -5.125 C 2.890625 -7.15625 4.15625 -8.5 6.09375 -8.5 C 8.046875 -8.5 9.3125 -7.15625 9.3125 -5.125 C 9.3125 -3.09375 8.046875 -1.75 6.09375 -1.75 Z M 6.09375 -1.75 "/></g></g></g></svg>